<?xml version="1.0" standalone="no"?>
<!DOCTYPE svg PUBLIC "-//W3C//DTD SVG 20010904//EN"
 "http://www.w3.org/TR/2001/REC-SVG-20010904/DTD/svg10.dtd">
<svg version="1.0" xmlns="http://www.w3.org/2000/svg"
 width="320.000000pt" height="290.000000pt" viewBox="0 0 320.000000 290.000000"
 preserveAspectRatio="xMidYMid meet">
<metadata>
Created by potrace 1.16, written by Peter Selinger 2001-2019
</metadata>
<g transform="translate(0.000000,290.000000) scale(0.100000,-0.100000)"
fill="#000000" stroke="none">
<path d="M70 1445 l0 -1385 1545 0 1545 0 0 1385 0 1385 -1545 0 -1545 0 0
-1385z m1340 1027 c-51 -33 -118 -110 -147 -170 -45 -89 -59 -182 -43 -274 7
-40 13 -85 12 -100 -1 -33 -4 -32 42 -13 166 70 510 84 675 28 50 -17 61 -27
61 -59 0 -19 -3 -20 -62 -13 -140 18 -418 22 -626 9 -117 -7 -216 -9 -219 -6
-15 15 -14 128 1 202 32 155 124 294 250 376 33 21 64 38 70 37 6 0 0 -7 -14
-17z m516 -21 c137 -90 223 -218 254 -378 12 -61 11 -206 -2 -218 -4 -4 -41
-4 -83 0 -86 8 -85 5 -49 95 14 33 18 72 18 150 1 93 -3 113 -28 172 -30 72
-87 144 -150 190 -58 42 -28 34 40 -11z m-408 -656 c4 -5 0 -5 -8 -1 -8 4 -4
-1 9 -12 14 -11 33 -19 42 -17 12 3 16 -1 12 -11 -3 -7 -10 -11 -16 -7 -6 3
-7 1 -3 -6 4 -6 11 -9 16 -6 16 10 42 -56 48 -118 4 -44 2 -58 -6 -53 -7 4
-12 28 -12 54 -1 26 -7 61 -15 77 l-14 30 5 -30 5 -30 -123 1 c-172 2 -161 0
-154 30 19 75 77 116 154 111 29 -2 56 -8 60 -12z m422 -12 c33 -19 70 -73 70
-102 0 -21 -3 -23 -37 -16 -44 9 -207 8 -236 -1 -17 -5 -19 -3 -13 22 11 44
42 80 88 103 46 23 82 21 128 -6z m357 -134 c215 -80 355 -276 369 -517 4 -63
3 -83 -5 -72 -6 8 -11 29 -11 47 0 45 -36 138 -78 202 -93 140 -296 215 -456
166 l-48 -15 6 28 c4 15 10 65 13 111 l6 84 72 -6 c40 -4 99 -16 132 -28z
m-1157 9 c65 -11 70 -14 70 -38 0 -14 6 -58 14 -98 13 -67 13 -73 -3 -66 -131
54 -284 41 -395 -36 -81 -55 -150 -146 -178 -235 -6 -16 -14 -64 -18 -105 -7
-68 -8 -63 -6 45 2 94 7 133 24 179 59 161 180 286 332 344 66 25 70 25 160
10z m1040 -299 c0 -50 0 -51 -27 -45 -36 8 -44 1 -79 -61 -23 -40 -33 -49 -45
-42 -15 8 -14 14 2 61 10 29 18 63 19 76 0 17 11 28 43 42 23 11 52 20 65 20
20 0 22 -5 22 -51z m-55 -273 c-14 -65 -25 -123 -25 -128 0 -5 34 36 76 91 41
56 77 101 79 101 5 0 -6 -34 -60 -202 -22 -70 -43 -118 -51 -118 -9 0 -3 30
22 102 19 56 34 104 34 106 0 2 -17 -18 -37 -45 -65 -85 -96 -123 -100 -120
-2 2 4 41 12 86 9 46 15 87 13 93 -2 6 -25 -26 -52 -71 -41 -70 -66 -98 -66
-75 0 9 174 302 177 300 2 -2 -8 -56 -22 -120z m-924 37 c72 -158 111 -255
104 -261 -8 -8 -20 13 -54 88 -14 30 -26 57 -28 59 -1 2 -21 -4 -43 -14 -46
-21 -46 -23 1 -117 33 -66 34 -68 16 -68 -7 0 -43 66 -80 148 -73 162 -77 173
-62 178 6 2 21 -22 34 -54 14 -31 25 -58 26 -60 2 -2 77 27 83 33 2 2 -8 29
-22 60 -23 49 -26 75 -11 75 3 0 19 -30 36 -67z m352 -251 c60 -35 149 -31
211 9 27 16 49 29 51 27 1 -2 15 -30 31 -63 16 -35 51 -83 83 -116 130 -129
309 -162 476 -85 30 14 55 23 55 21 0 -10 -111 -72 -168 -93 -55 -20 -85 -25
-167 -25 -192 0 -334 73 -448 231 -17 23 -33 42 -37 42 -3 0 -13 -12 -22 -27
-54 -92 -174 -184 -288 -224 -92 -31 -239 -32 -330 0 -63 22 -169 80 -170 92
0 3 21 -5 48 -18 108 -53 246 -52 361 3 80 39 170 134 206 217 29 66 30 66 50
48 11 -9 37 -27 58 -39z"/>
</g>
</svg>
